<svg id="Layer_1" data-name="Layer 1" xmlns="http://www.w3.org/2000/svg" viewBox="0 0 343.61 127.82"><defs><style>.cls-1{fill:#fff;}.cls-1,.cls-2,.cls-3,.cls-4{stroke:#414042;stroke-miterlimit:10;}.cls-1,.cls-2,.cls-3{stroke-width:2px;}.cls-2{fill:#feefe8;}.cls-3{fill:#dcf2fd;}.cls-4{fill:none;stroke-width:4px;}.cls-5,.cls-8{font-size:51px;fill:#414042;font-family:ChalkboardSE-Regular, Chalkboard SE;}.cls-5{letter-spacing:0.5em;}.cls-6{fill:#da1c5c;letter-spacing:0.5em;}.cls-7{letter-spacing:0.5em;}.cls-8{letter-spacing:0.43em;}.cls-9{letter-spacing:0.46em;}.cls-10{fill:#2e3192;}.cls-11{letter-spacing:0.4em;}.cls-12{letter-spacing:0.43em;}</style></defs><rect class="cls-1" x="10.53" y="9.77" width="54.14" height="54.14"/><rect class="cls-2" x="64.66" y="9.77" width="54.14" height="54.14"/><rect class="cls-1" x="118.8" y="9.77" width="54.14" height="54.14"/><rect class="cls-1" x="10.53" y="63.91" width="54.14" height="54.14"/><rect class="cls-1" x="64.66" y="63.91" width="54.14" height="54.14"/><rect class="cls-1" x="118.8" y="63.91" width="54.14" height="54.14"/><rect class="cls-1" x="172.93" y="9.77" width="54.14" height="54.14"/><rect class="cls-1" x="227.07" y="9.77" width="54.14" height="54.14"/><rect class="cls-1" x="281.2" y="9.77" width="54.14" height="54.14"/><rect class="cls-3" x="172.93" y="63.91" width="54.14" height="54.14"/><rect class="cls-1" x="227.07" y="63.91" width="54.14" height="54.14"/><rect class="cls-1" x="281.2" y="63.91" width="54.14" height="54.14"/><rect class="cls-4" x="10.53" y="9.77" width="162.41" height="108.27"/><rect class="cls-4" x="172.93" y="9.77" width="162.41" height="108.27"/><text class="cls-5" transform="translate(22.49 57.28)">K<tspan class="cls-6" x="55.31" y="0">1</tspan><tspan class="cls-7" x="109.83" y="0">LLER</tspan></text><text class="cls-8" transform="translate(20.77 107.69)">S<tspan class="cls-9" x="51.81" y="0">U</tspan><tspan x="108.63" y="0">D</tspan><tspan class="cls-10" x="162.92" y="0">0</tspan><tspan class="cls-11" x="213.77" y="0">K</tspan><tspan class="cls-12" x="264.11" y="0">U</tspan></text></svg>